<svg  width="54" height="54" viewBox="0 0 54 54" fill="none" xmlns="http://www.w3.org/2000/svg">
<rect x="2.5" y="6.5" width="45" height="45" rx="22.5" fill="white" fill-opacity="0.05" stroke="white"/>
<g filter="url(#filter0_f_1262_190)">
<rect x="4.5" y="4.5" width="45" height="45" rx="22.5" stroke="white"/>
</g>
<path d="M36.6435 21.9376C35.8085 22.3076 34.9115 22.5576 33.9685 22.6706C34.9415 22.0884 35.6694 21.172 36.0165 20.0926C35.1023 20.6356 34.1018 21.0178 33.0585 21.2226C32.3569 20.4734 31.4276 19.9769 30.4148 19.81C29.4021 19.6432 28.3626 19.8154 27.4577 20.2998C26.5529 20.7843 25.8333 21.5539 25.4107 22.4893C24.988 23.4246 24.886 24.4733 25.1205 25.4726C23.2682 25.3796 21.4561 24.8981 19.8019 24.0595C18.1477 23.2208 16.6883 22.0437 15.5185 20.6046C15.1185 21.2946 14.8885 22.0946 14.8885 22.9466C14.8881 23.7136 15.0769 24.4688 15.4384 25.1453C15.7998 25.8218 16.3227 26.3986 16.9605 26.8246C16.2208 26.801 15.4974 26.6011 14.8505 26.2416V26.3016C14.8504 27.3773 15.2225 28.4199 15.9037 29.2526C16.5848 30.0852 17.5331 30.6565 18.5875 30.8696C17.9013 31.0553 17.1818 31.0826 16.4835 30.9496C16.781 31.8752 17.3605 32.6846 18.1409 33.2645C18.9212 33.8444 19.8634 34.1657 20.8355 34.1836C19.1853 35.479 17.1474 36.1817 15.0495 36.1786C14.6779 36.1787 14.3066 36.157 13.9375 36.1136C16.067 37.4827 18.5458 38.2094 21.0775 38.2066C29.6475 38.2066 34.3325 31.1086 34.3325 24.9526C34.3325 24.7526 34.3275 24.5506 34.3185 24.3506C35.2298 23.6915 36.0164 22.8755 36.6415 21.9406L36.6435 21.9376Z" fill="white"/>
<defs>
<filter id="filter0_f_1262_190" x="0" y="0" width="54" height="54" filterUnits="userSpaceOnUse" color-interpolation-filters="sRGB">
<feFlood flood-opacity="0" result="BackgroundImageFix"/>
<feBlend mode="normal" in="SourceGraphic" in2="BackgroundImageFix" result="shape"/>
<feGaussianBlur stdDeviation="2" result="effect1_foregroundBlur_1262_190"/>
</filter>
</defs>
</svg>
